{"accessors":[{"bufferView":0,"componentType":5125,"count":36864,"max":[24555.0],"min":[0.0],"type":"SCALAR"},{"bufferView":1,"componentType":5126,"count":24576,"max":[1.2555402517318726,-1.1245007514953614,3.8907577991485597],"min":[-1.2555402517318726,-1.6968038082122803,0.025150710716843606],"type":"VEC3"},{"bufferView":2,"componentType":5126,"count":24576,"max":[0.9999619126319885,0.016480494290590287,0.7087552547454834],"min":[-0.9999619126319885,-1.0,-0.708755612373352],"type":"VEC3"},{"bufferView":3,"componentType":5126,"count":24576,"max":[1.0131525993347169,1.006859302520752],"min":[-0.013152658939361573,-0.006859302520751953],"type":"VEC2"},{"bufferView":4,"componentType":5125,"count":63360,"max":[42219.0],"min":[0.0],"type":"SCALAR"},{"bufferView":5,"componentType":5126,"count":42240,"max":[1.2555402517318726,-1.0582525730133057,3.9152188301086427],"min":[-1.2555402517318726,-1.671898603439331,0.0006897452985867858],"type":"VEC3"},{"bufferView":6,"componentType":5126,"count":42240,"max":[0.9999619126319885,1.0,0.9999523162841797],"min":[-0.9999619126319885,-0.7108390927314758,-0.9999523758888245],"type":"VEC3"}],"asset":{"generator":"SimLab GLTF","version":"2.0"},"bufferViews":[{"buffer":0,"byteLength":147456,"target":34963},{"buffer":0,"byteLength":294912,"byteOffset":147456,"byteStride":12,"target":34962},{"buffer":0,"byteLength":294912,"byteOffset":442368,"byteStride":12,"target":34962},{"buffer":0,"byteLength":196608,"byteOffset":737280,"byteStride":8,"target":34962},{"buffer":0,"byteLength":253440,"byteOffset":933888,"target":34963},{"buffer":0,"byteLength":506880,"byteOffset":1187328,"byteStride":12,"target":34962},{"buffer":0,"byteLength":506880,"byteOffset":1694208,"byteStride":12,"target":34962}],"buffers":[{"byteLength":2201088,"uri":"etiketta_rettangolare-PolyHD.bin"}],"extensionsUsed":["KHR_materials_pbrSpecularGlossiness"],"images":[{"mimeType":"image/jpeg","uri":"Textures/piastrella.jpg"}],"materials":[{"extensions":{"KHR_materials_pbrSpecularGlossiness":{"diffuseFactor":[0.5879999995231628,0.5879999995231628,0.5879999995231628,1.0],"diffuseTexture":{"index":0},"specularFactor":[0.0,0.0,0.0],"glossinessFactor":0.019999980926513673}},"name":"03 - Default","alphaMode":"MASK","doubleSided":true,"pbrMetallicRoughness":{"baseColorFactor":[0.5879999995231628,0.5879999995231628,0.5879999995231628,1.0],"metallicFactor":0.0}},{"extensions":{"KHR_materials_pbrSpecularGlossiness":{"diffuseFactor":[0.0,0.38823533058166506,0.6117647290229797,1.0],"specularFactor":[0.0,0.0,0.0],"glossinessFactor":0.019999980926513673}},"name":"bassorilievo","alphaMode":"MASK","doubleSided":true,"pbrMetallicRoughness":{"baseColorFactor":[0.0,0.38823533058166506,0.6117647290229797,1.0],"metallicFactor":0.0}}],"meshes":[{"primitives":[{"attributes":{"NORMAL":2,"POSITION":1,"TEXCOORD_0":3},"indices":0,"material":0,"mode":4}]},{"primitives":[{"attributes":{"NORMAL":6,"POSITION":5},"indices":4,"material":1,"mode":4}]}],"nodes":[{"children":[1,2],"matrix":[1.0,0.0,0.0,0.0,0.0,4.4896593387466768e-11,-1.0,0.0,0.0,1.0,4.4896593387466768e-11,0.0,0.0,0.0,0.0,1.0]},{"extras":{},"name":"Camera-1","rotation":[-0.7071067690849304,0.0,0.0,-0.7071067690849304],"translation":[0.0,-0.4327053725719452,0.11942127346992493]},{"extras":{},"name":"Assembly-13","children":[3],"rotation":[0.0,0.0,0.0,-1.0],"scale":[0.02539999969303608,0.02539999969303608,0.02539999969303608]},{"extras":{},"name":"Tube002","children":[4],"rotation":[-3.0616171314629199e-17,0.0,0.0,-1.0],"translation":[0.0,0.0,2.743670701980591]},{"extras":{},"name":"Assembly-12","children":[5,6],"rotation":[0.0,0.0,0.0,-1.0]},{"extras":{},"name":"Tube002","mesh":0,"rotation":[0.0,0.0,0.0,-1.0]},{"extras":{},"name":"Tube002","mesh":1,"rotation":[0.0,0.0,0.0,-1.0]}],"scene":0,"scenes":[{"nodes":[0]}],"textures":[{"source":0}]}