{
  "accessors": [
    {
      "bufferView": 2,
      "componentType": 5126,
      "count": 980,
      "max": [
        0.040699996054172516,
        0.0408610999584198,
        0.30002281069755554
      ],
      "min": [
        -0.040699999779462814,
        -0.04053889960050583,
        0.00014999914856161922
      ],
      "type": "VEC3"
    },
    {
      "bufferView": 2,
      "byteOffset": 11760,
      "componentType": 5126,
      "count": 980,
      "max": [
        0.9980342388153076,
        0.9920849204063416,
        0.9947280287742615
      ],
      "min": [
        -0.9980341792106628,
        -1.0,
        -1.0
      ],
      "type": "VEC3"
    },
    {
      "bufferView": 1,
      "componentType": 5126,
      "count": 980,
      "max": [
        0.971459150314331,
        0.980452299118042
      ],
      "min": [
        0.023437432944774628,
        0.01762441173195839
      ],
      "type": "VEC2"
    },
    {
      "bufferView": 1,
      "byteOffset": 7840,
      "componentType": 5126,
      "count": 980,
      "max": [
        0.971459150314331,
        0.980452299118042
      ],
      "min": [
        0.023437432944774628,
        0.01762441173195839
      ],
      "type": "VEC2"
    },
    {
      "bufferView": 1,
      "byteOffset": 15680,
      "componentType": 5126,
      "count": 980,
      "max": [
        0.971459150314331,
        0.980452299118042
      ],
      "min": [
        0.023437432944774628,
        0.01762441173195839
      ],
      "type": "VEC2"
    },
    {
      "bufferView": 0,
      "componentType": 5125,
      "count": 4944,
      "type": "SCALAR"
    },
    {
      "bufferView": 2,
      "byteOffset": 23520,
      "componentType": 5126,
      "count": 3563,
      "max": [
        0.039749447256326675,
        0.03988931328058243,
        0.30002281069755554
      ],
      "min": [
        -0.03974943980574608,
        -0.039594341069459915,
        -0.0006318493979051709
      ],
      "type": "VEC3"
    },
    {
      "bufferView": 2,
      "byteOffset": 66276,
      "componentType": 5126,
      "count": 3563,
      "max": [
        0.9999411702156067,
        0.9994276762008667,
        1.0
      ],
      "min": [
        -0.9999411702156067,
        -0.9994279146194458,
        -1.0
      ],
      "type": "VEC3"
    },
    {
      "bufferView": 1,
      "byteOffset": 23520,
      "componentType": 5126,
      "count": 3563,
      "max": [
        0.6954416036605835,
        0.9750151634216309
      ],
      "min": [
        0.26400846242904663,
        0.6581029295921326
      ],
      "type": "VEC2"
    },
    {
      "bufferView": 1,
      "byteOffset": 52024,
      "componentType": 5126,
      "count": 3563,
      "max": [
        0.6954416036605835,
        0.9750151634216309
      ],
      "min": [
        0.26400846242904663,
        0.6581029295921326
      ],
      "type": "VEC2"
    },
    {
      "bufferView": 1,
      "byteOffset": 80528,
      "componentType": 5126,
      "count": 3563,
      "max": [
        0.6954416036605835,
        0.9750151634216309
      ],
      "min": [
        0.26400846242904663,
        0.6581029295921326
      ],
      "type": "VEC2"
    },
    {
      "bufferView": 0,
      "byteOffset": 19776,
      "componentType": 5125,
      "count": 13734,
      "type": "SCALAR"
    }
  ],
  "asset": {
    "extras": {
      "author": "FranzAlvior (https://sketchfab.com/FranzAlvior)",
      "license": "CC-BY-4.0 (http://creativecommons.org/licenses/by/4.0/)",
      "source": "https://sketchfab.com/3d-models/wine-bottle-6ac5937fd2594729ae98ad71af3e33d2",
      "title": "Wine Bottle"
    },
    "generator": "Sketchfab-12.68.0",
    "version": "2.0"
  },
  "bufferViews": [
    {
      "buffer": 0,
      "byteLength": 74712,
      "name": "floatBufferViews",
      "target": 34963
    },
    {
      "buffer": 0,
      "byteLength": 109032,
      "byteOffset": 74712,
      "byteStride": 8,
      "name": "floatBufferViews",
      "target": 34962
    },
    {
      "buffer": 0,
      "byteLength": 109032,
      "byteOffset": 183744,
      "byteStride": 12,
      "name": "floatBufferViews",
      "target": 34962
    }
  ],
  "buffers": [
    {
      "byteLength": 292776,
      "uri": "scene.bin"
    }
  ],
  "images": [
    {
      "uri": "textures/Material.001_baseColor.png"
    },
    {
      "uri": "textures/Material.001_metallicRoughness.png"
    }
  ],
  "materials": [
    {
      "doubleSided": true,
      "name": "Material.001",
      "pbrMetallicRoughness": {
        "baseColorTexture": {
          "index": 0
        },
        "metallicFactor": 0.0,
        "metallicRoughnessTexture": {
          "index": 1
        },
        "roughnessFactor": 0.5854066723820295
      }
    }
  ],
  "meshes": [
    {
      "name": "Mesh_Bottle_Material.001_0",
      "primitives": [
        {
          "attributes": {
            "NORMAL": 1,
            "POSITION": 0,
            "TEXCOORD_0": 2,
            "TEXCOORD_1": 3,
            "TEXCOORD_2": 4
          },
          "indices": 5,
          "material": 0,
          "mode": 4
        }
      ]
    },
    {
      "name": "Mesh_Bottle.001_Material.001_0",
      "primitives": [
        {
          "attributes": {
            "NORMAL": 7,
            "POSITION": 6,
            "TEXCOORD_0": 8,
            "TEXCOORD_1": 9,
            "TEXCOORD_2": 10
          },
          "indices": 11,
          "material": 0,
          "mode": 4
        }
      ]
    }
  ],
  "nodes": [
    {
      "children": [
        1
      ],
      "matrix": [
        1.0,
        0.0,
        0.0,
        0.0,
        0.0,
        2.220446049250313e-16,
        -1.0,
        0.0,
        0.0,
        1.0,
        2.220446049250313e-16,
        0.0,
        0.0,
        0.0,
        0.0,
        1.0
      ],
      "name": "Sketchfab_model"
    },
    {
      "children": [
        2
      ],
      "matrix": [
        0.009999999776482582,
        0.0,
        0.0,
        0.0,
        0.0,
        0.0,
        0.009999999776482582,
        0.0,
        0.0,
        -0.009999999776482582,
        0.0,
        0.0,
        0.0,
        0.0,
        0.0,
        1.0
      ],
      "name": "4a7077050e734b42bb7b86141a9cc53c.fbx"
    },
    {
      "children": [
        3,
        5
      ],
      "name": "RootNode"
    },
    {
      "children": [
        4
      ],
      "matrix": [
        100.0,
        0.0,
        0.0,
        0.0,
        0.0,
        -1.629206793918314e-05,
        -99.99999999999868,
        0.0,
        0.0,
        99.99999999999868,
        -1.629206793918314e-05,
        0.0,
        0.0,
        0.0,
        0.0,
        1.0
      ],
      "name": "Mesh_Bottle"
    },
    {
      "mesh": 0,
      "name": "Mesh_Bottle_Material.001_0"
    },
    {
      "children": [
        6
      ],
      "matrix": [
        100.0,
        0.0,
        0.0,
        0.0,
        0.0,
        -1.629206793918314e-05,
        -99.99999999999868,
        0.0,
        0.0,
        99.99999999999868,
        -1.629206793918314e-05,
        0.0,
        0.0,
        0.0,
        0.0,
        1.0
      ],
      "name": "Mesh_Bottle.001"
    },
    {
      "mesh": 1,
      "name": "Mesh_Bottle.001_Material.001_0"
    }
  ],
  "samplers": [
    {
      "magFilter": 9729,
      "minFilter": 9987,
      "wrapS": 10497,
      "wrapT": 10497
    }
  ],
  "scene": 0,
  "scenes": [
    {
      "name": "Sketchfab_Scene",
      "nodes": [
        0
      ]
    }
  ],
  "textures": [
    {
      "sampler": 0,
      "source": 0
    },
    {
      "sampler": 0,
      "source": 1
    }
  ]
}
